<?xml version="1.0" standalone="no"?>
<!DOCTYPE svg PUBLIC "-//W3C//DTD SVG 20010904//EN"
 "http://www.w3.org/TR/2001/REC-SVG-20010904/DTD/svg10.dtd">
<svg version="1.0" xmlns="http://www.w3.org/2000/svg"
 width="700.000000pt" height="700.000000pt" viewBox="0 0 700.000000 700.000000"
 preserveAspectRatio="xMidYMid meet">
<metadata>
Created by potrace 1.14, written by Peter Selinger 2001-2017
</metadata>
<g transform="translate(0.000000,700.000000) scale(0.100000,-0.100000)"
fill="#000000" stroke="none">
<path d="M2735 6231 c-11 -5 -106 -63 -210 -128 -105 -66 -294 -185 -420 -265
-127 -79 -396 -249 -600 -377 -1102 -694 -1032 -649 -1126 -742 -183 -182
-315 -433 -364 -694 -18 -93 -17 -280 1 -384 43 -247 181 -510 364 -691 104
-104 26 -51 850 -570 783 -493 919 -579 1020 -642 288 -182 403 -254 425 -268
51 -31 668 -420 860 -543 269 -171 274 -173 347 -151 49 15 76 106 48 159 -12
23 -231 167 -678 445 -49 30 -122 76 -163 102 -41 26 -360 227 -709 447 -349
219 -666 419 -705 444 -38 24 -212 133 -385 242 -173 109 -394 248 -490 309
-200 125 -303 218 -389 351 -185 283 -229 583 -126 867 59 165 171 338 285
440 32 29 126 96 209 148 84 52 184 116 224 141 40 25 307 194 595 375 287
181 618 389 735 463 117 73 264 166 328 205 l115 72 385 -242 c211 -134 437
-276 502 -316 65 -40 135 -84 157 -98 217 -137 298 -188 510 -322 917 -578
1386 -873 1490 -938 127 -79 573 -360 627 -395 17 -11 73 -46 123 -79 50 -32
88 -62 83 -67 -4 -4 -100 -66 -213 -137 -675 -424 -950 -598 -1065 -671 -71
-45 -139 -88 -149 -94 -11 -7 -63 -39 -115 -73 -53 -33 -174 -109 -269 -168
-217 -136 -273 -178 -363 -274 -172 -185 -312 -458 -353 -691 -17 -98 -18
-252 -1 -324 69 -297 327 -415 605 -277 31 15 222 132 425 260 204 128 457
287 562 354 106 66 204 128 218 136 14 8 178 112 364 230 187 118 357 225 378
237 130 76 266 277 308 455 54 231 -54 418 -241 418 -85 0 -118 -15 -355 -165
-60 -38 -121 -77 -134 -85 -13 -8 -92 -58 -175 -110 -83 -52 -162 -102 -175
-110 -13 -8 -136 -85 -272 -171 -137 -86 -423 -267 -638 -402 -330 -208 -393
-251 -408 -281 -35 -68 5 -148 81 -162 42 -8 74 8 315 162 103 65 225 142 270
170 45 28 237 149 427 269 190 120 431 271 535 337 105 66 261 164 348 219 87
54 164 99 171 99 65 0 35 -181 -53 -317 -48 -75 -84 -104 -306 -243 -99 -62
-200 -126 -225 -141 -64 -41 -327 -207 -445 -280 -55 -35 -307 -193 -559 -353
-253 -159 -486 -303 -518 -319 -76 -38 -142 -42 -193 -13 -168 94 -98 537 135
847 95 127 159 180 412 340 276 175 421 266 1068 673 399 251 732 460 740 466
8 6 50 32 93 59 84 51 117 89 117 134 0 57 -25 81 -192 187 -90 56 -174 110
-188 119 -14 9 -32 20 -41 26 -48 30 -161 101 -214 134 -114 73 -940 594 -959
605 -11 6 -25 15 -30 19 -6 5 -35 23 -64 40 -54 33 -949 596 -1037 652 -27 18
-95 61 -150 95 -55 35 -122 77 -150 95 -27 18 -146 92 -263 166 -963 606 -921
582 -977 560z"/>
<path d="M2718 5314 c-50 -27 -73 -102 -45 -151 17 -30 38 -45 237 -170 360
-226 997 -627 1045 -658 28 -18 242 -153 477 -301 236 -148 490 -308 565 -356
76 -49 145 -91 153 -95 8 -4 33 -19 55 -34 22 -15 78 -50 125 -79 73 -44 90
-51 123 -47 92 12 135 127 71 190 -20 20 -127 91 -270 177 -37 23 -758 476
-849 535 -139 88 -189 120 -207 130 -19 11 -1028 646 -1113 701 -279 180 -306
191 -367 158z"/>
<path d="M2249 5018 c-21 -13 -348 -217 -690 -432 -165 -104 -308 -201 -317
-215 -26 -39 -22 -106 8 -135 20 -20 472 -305 1060 -669 118 -73 128 -78 154
-83 37 -6 74 12 223 109 135 88 163 118 163 172 0 62 -62 116 -124 110 -18 -1
-77 -32 -136 -69 -57 -36 -107 -66 -111 -66 -5 0 -147 86 -316 191 -169 106
-374 233 -455 283 -137 85 -146 92 -130 107 9 9 118 79 242 157 124 77 282
176 350 220 l125 79 445 -279 c245 -154 449 -283 454 -288 4 -4 -16 -24 -46
-43 -71 -45 -98 -80 -98 -126 0 -83 80 -138 154 -107 45 19 287 178 310 204
26 30 27 99 1 133 -10 14 -148 106 -305 204 -157 98 -314 198 -350 221 -121
77 -468 293 -505 314 -36 20 -79 23 -106 8z"/>
<path d="M875 4076 c-39 -17 -65 -56 -67 -99 -2 -65 15 -81 227 -212 88 -54
183 -113 210 -130 55 -36 295 -184 323 -200 9 -6 132 -82 272 -169 140 -88
491 -306 780 -486 289 -179 649 -403 801 -498 151 -94 289 -175 306 -178 43
-9 98 20 117 61 33 69 13 115 -76 173 -62 39 -1056 659 -1110 691 -46 27 -360
222 -413 256 -44 28 -152 95 -525 327 -58 36 -242 151 -410 255 -168 104 -316
195 -329 202 -36 20 -73 22 -106 7z"/>
<path d="M3792 4030 c-18 -11 -37 -32 -43 -48 -12 -31 -6 -96 11 -117 9 -11
674 -433 834 -530 18 -11 104 -64 190 -119 174 -109 206 -119 264 -77 46 33
60 105 28 152 -8 13 -158 114 -333 223 -175 110 -340 214 -368 232 -27 17
-149 93 -269 168 -235 146 -253 153 -314 116z"/>
<path d="M3332 3733 c-65 -32 -83 -120 -34 -172 15 -16 153 -108 307 -204 154
-96 414 -258 579 -361 251 -157 304 -186 336 -186 93 0 145 114 87 188 -6 7
-138 93 -293 190 -156 97 -379 237 -496 310 -428 267 -425 266 -486 235z"/>
<path d="M2834 3406 c-37 -37 -45 -86 -22 -129 17 -32 22 -36 148 -113 63 -39
325 -202 582 -362 257 -161 479 -294 492 -298 100 -25 179 110 109 185 -16 17
-203 139 -418 272 -214 133 -476 295 -581 360 -166 103 -196 119 -233 119 -36
0 -49 -6 -77 -34z"/>
</g>
</svg>
